<svg xmlns:dc="http://purl.org/dc/elements/1.1/" xmlns:cc="http://creativecommons.org/ns#" xmlns:rdf="http://www.w3.org/1999/02/22-rdf-syntax-ns#" xmlns:svg="http://www.w3.org/2000/svg" xmlns="http://www.w3.org/2000/svg" xmlns:sodipodi="http://sodipodi.sourceforge.net/DTD/sodipodi-0.dtd" xmlns:inkscape="http://www.inkscape.org/namespaces/inkscape" version="1.1" x="0px" y="0px" viewBox="0 0 100 125"><g transform="translate(0,-952.36218)"><path style="text-indent:0;text-transform:none;direction:ltr;block-progression:tb;baseline-shift:baseline;color:#000000;enable-background:accumulate;" d="m 26.685251,958.39698 c -6.6056,0 -13.1907,2.63155 -18.1874994,7.875 -9.9934,10.48673 -9.9813,27.28699 0,37.78132 l 39.3124994,41.3437 a 3.0003,3.0003 0 0 0 4.3438,0 c 13.1204,-13.7682 26.2232,-27.5441 39.3437,-41.3125 9.993299,-10.48693 9.993399,-27.29437 0,-37.78127 -9.9935,-10.48686 -26.4127,-10.48711 -36.4062,0 l -5.0938,5.3125 -5.0937,-5.34375 c -4.9968,-5.24345 -11.6132,-7.875 -18.2188,-7.875 z m 0,5.875 c 4.9885,0 9.9877,2.0458 13.875,6.125 l 7.2813,7.65625 a 3.0003,3.0003 0 0 0 4.3437,0 l 7.25,-7.625 c 7.7746,-8.15857 19.9441,-8.15842 27.7188,0 7.7744,8.1584 7.7744,21.37284 0,29.53128 -12.3936,13.00559 -24.7627,26.02579 -37.1563,39.03129 l -37.1562,-39.06249 c -7.7695994,-8.16898 -7.7744994,-21.37312 0,-29.53133 3.8872,-4.0792 8.8552,-6.125 13.8437,-6.125 z" fill="#000000" fill-opacity="1" stroke="none" marker="none" visibility="visible" display="inline" overflow="visible"/></g><text x="0" y="115" fill="#000000" font-size="5px" font-weight="bold" font-family="'Helvetica Neue', Helvetica, Arial-Unicode, Arial, Sans-serif">Created by il Capitano</text><text x="0" y="120" fill="#000000" font-size="5px" font-weight="bold" font-family="'Helvetica Neue', Helvetica, Arial-Unicode, Arial, Sans-serif">from the Noun Project</text></svg>