<svg xmlns="http://www.w3.org/2000/svg" xmlns:xlink="http://www.w3.org/1999/xlink" version="1.1" x="0px" y="0px" viewBox="0 0 65 81.25" enable-background="new 0 0 65 65" xml:space="preserve"><g><path d="M62.5,5.7h-60C1,5.7-0.2,6.9-0.2,8.4v40.4c0,1.5,1.2,2.8,2.8,2.8h20.6v6.3h-3.7v1.5h26.3v-1.5h-3.7v-6.3h20.6   c1.5,0,2.8-1.2,2.8-2.8V8.4C65.3,6.9,64,5.7,62.5,5.7z M2.5,7.2h60c0.7,0,1.3,0.6,1.3,1.3v37H1.3v-37C1.3,7.7,1.8,7.2,2.5,7.2z    M40.4,57.8H24.6v-6.3h15.8V57.8z M62.5,50.1h-60c-0.7,0-1.2-0.6-1.2-1.3v-1.9h62.5v1.9C63.8,49.5,63.2,50.1,62.5,50.1z"/><path d="M53.8,40.5c3.3,0,6-2.7,6-6V30c0-2.9-2.1-5.4-4.9-5.9c1.3-3.6,0.6-4.7-0.6-6c-0.7-0.8-1.5-1.6-1.5-4.1h-1.5   c0,3.1,1.1,4.3,1.9,5.1c0.9,0.9,1.4,1.5,0.1,4.9c-3,0.3-5.4,2.8-5.4,5.9v4.5C47.8,37.8,50.5,40.5,53.8,40.5z M49.3,30   c0-2.5,2-4.5,4.5-4.5s4.5,2,4.5,4.5v4.5c0,2.5-2,4.5-4.5,4.5s-4.5-2-4.5-4.5V30z"/><rect x="53.1" y="27.8" width="1.5" height="2.2"/><path d="M35.1,33.3c-0.1-0.1-0.3-0.1-0.4-0.1h-21c0,0,0,0,0,0h-3c-2.3,0-4.2,1.9-4.2,4.2c0,2.3,1.9,4.2,4.2,4.2h3c0,0,0,0,0,0l21,0   c0.2,0,0.3-0.1,0.4-0.1l0,0l6.2-4.1L35.1,33.3L35.1,33.3z M34,36.6H14.5v-2H34L34,36.6z M8,37.4c0-1.5,1.2-2.7,2.7-2.7H13v5.4h-2.3   C9.2,40.1,8,38.9,8,37.4z M14.5,40.1v-2H34l0,1.9L14.5,40.1z M35.5,39.4l0-4.1l3.1,2.1L35.5,39.4z"/><path d="M12.4,25.9c3.8,2,7.5,3.1,11.1,3.1c0,0,0.1,0,0.1,0c0,0,0.1,0,0.1,0c3.6,0,7.3-1.1,11.1-3.1c4.4-2.4,7.2-5.2,7.4-5.3   l0.5-0.5l-0.5-0.5c-0.2-0.2-5.6-5.6-13.1-7.7c-1.6-0.4-3.2-0.7-4.8-0.7c-0.2,0-0.5,0-0.7,0c-0.2,0-0.5,0-0.7,0   c-1.6,0.1-3.2,0.3-4.8,0.7c-7.5,2-12.9,7.4-13.1,7.7L4.5,20L5,20.6C5.1,20.7,8,23.5,12.4,25.9z M16.1,20c0-3.9,3-7.1,6.8-7.4   c0.4,0,0.9,0,1.3,0c3.8,0.3,6.8,3.5,6.8,7.4c0,4.1-3.3,7.4-7.4,7.4c0,0-0.1,0-0.1,0c0,0-0.1,0-0.1,0C19.4,27.4,16.1,24.1,16.1,20z    M40.5,20c-1,0.9-3.3,2.9-6.4,4.5c-1.4,0.8-2.8,1.4-4.2,1.8c1.7-1.6,2.7-3.9,2.7-6.4c0-2.5-1-4.8-2.7-6.4   C35.1,15.4,39.1,18.8,40.5,20z M17.3,13.7c-1.7,1.6-2.7,3.9-2.7,6.4c0,2.5,1,4.8,2.7,6.4c-1.4-0.5-2.8-1.1-4.2-1.8   C10,22.9,7.7,21,6.6,20C8.1,18.8,12.1,15.4,17.3,13.7z"/><path d="M26.4,20c0-1.5-1.3-2.8-2.8-2.8c-1.5,0-2.8,1.3-2.8,2.8c0,1.5,1.3,2.8,2.8,2.8C25.1,22.8,26.4,21.6,26.4,20z M22.3,20   c0-0.7,0.6-1.3,1.3-1.3c0.7,0,1.3,0.6,1.3,1.3c0,0.7-0.6,1.3-1.3,1.3C22.9,21.3,22.3,20.8,22.3,20z"/></g><text x="0" y="80" fill="#000000" font-size="5px" font-weight="bold" font-family="'Helvetica Neue', Helvetica, Arial-Unicode, Arial, Sans-serif">Created by Creative Stall</text><text x="0" y="85" fill="#000000" font-size="5px" font-weight="bold" font-family="'Helvetica Neue', Helvetica, Arial-Unicode, Arial, Sans-serif">from the Noun Project</text></svg>